<svg class="main-svg" xmlns="http://www.w3.org/2000/svg" xmlns:xlink="http://www.w3.org/1999/xlink" width="700" height="500" style="" viewBox="0 0 700 500"><rect x="0" y="0" width="700" height="500" style="fill: rgb(255, 255, 255); fill-opacity: 1;"/><defs id="defs-70fbe9"><g class="clips"><clipPath id="clip70fbe9xyplot" class="plotclip"><rect width="422" height="360"/></clipPath><clipPath class="axesclip" id="clip70fbe9x"><rect x="80" y="0" width="422" height="500"/></clipPath><clipPath class="axesclip" id="clip70fbe9y"><rect x="0" y="60" width="700" height="360"/></clipPath><clipPath class="axesclip" id="clip70fbe9xy"><rect x="80" y="60" width="422" height="360"/></clipPath></g><g class="gradients"/><g class="patterns"/></defs><g class="bglayer"/><g class="layer-below"><g class="imagelayer"/><g class="shapelayer"/></g><g class="cartesianlayer"><g class="subplot xy"><g class="layer-subplot"><g class="shapelayer"/><g class="imagelayer"/></g><g class="minor-gridlayer"><g class="x"/><g class="y"/></g><g class="gridlayer"><g class="x"/><g class="y"/></g><g class="zerolinelayer"><path class="yzl zl crisp" transform="translate(0,402)" d="M80,0h422" style="stroke: rgb(235, 240, 248); stroke-opacity: 1; stroke-width: 2px;"/></g><g class="layer-between"><g class="shapelayer"/><g class="imagelayer"/></g><path class="xlines-below"/><path class="ylines-below"/><g class="overlines-below"/><g class="xaxislayer-below"/><g class="yaxislayer-below"/><g class="overaxes-below"/><g class="overplot"><g class="xy" transform="translate(80,60)" clip-path="url(#clip70fbe9xyplot)"><g class="scatterlayer mlayer"><g class="trace scatter trace474131" style="stroke-miterlimit: 2; opacity: 1;"><g class="fills"/><g class="errorbars"/><g class="lines"><path class="js-line" d="M-133.63,19.52L-106.2,22.55L-105.5,29L-78.77,30.52L-77.37,31.28L-71.04,32.8L-70.33,57.84L-62.6,58.22L-56.27,60.11L-37.28,60.49L-35.17,74.15L-28.13,74.91L-21.1,75.29L-7.03,77.19L-1.41,77.56L-0.7,80.22L0,130.68L7.03,131.06L13.36,131.06L14.77,133.71L15.47,134.09L33.76,136.75L34.46,136.75L35.17,178.86L38.68,178.86L42.2,179.62L47.83,179.62L48.53,179.62L49.23,182.28L55.56,182.66L56.27,186.07L62.6,186.45L63.3,190.24L68.22,190.24L68.93,191L69.63,195.18L70.33,265.36L83.7,265.74L84.4,267.64L90.73,268.02L91.43,269.16L97.06,269.54L98.47,270.3L104.8,271.43L105.5,294.58L125.9,295.33L126.6,296.09L137.85,296.47L138.56,296.85L139.26,296.85L139.96,297.99L141.37,321.89L142.07,321.89L174.43,322.27L175.13,322.65L175.83,324.55L179.35,324.55L206.08,324.93L206.78,325.31L208.19,325.69L208.89,326.07L209.59,326.07L210.3,327.2L211.7,335.55L214.52,335.55L280.63,335.55L281.33,338.96L350.96,338.96L351.67,340.48L421.3,340.48L422,342L3727.67,342" style="vector-effect: none; fill: none; stroke: rgb(99, 110, 250); stroke-opacity: 1; stroke-width: 2px; opacity: 1;"/></g><g class="points"/><g class="text"/></g><g class="trace scatter trace83db76" style="stroke-miterlimit: 2; opacity: 1;"><g class="fills"/><g class="errorbars"/><g class="lines"><path class="js-line" d="M-133.63,18L-71.04,19.52L-70.33,23.69L-37.28,24.83L-35.17,27.48L-0.7,28.24L0,37.73L14.77,38.11L15.47,38.87L26.73,39.25L28.13,40L33.76,41.14L34.46,41.52L35.17,51.39L38.68,51.39L42.2,51.77L47.83,52.15L55.56,52.15L56.27,53.28L63.3,53.66L68.22,54.04L68.93,54.04L69.63,58.22L71.04,107.16L73.85,107.16L83.7,107.92L84.4,110.57L91.43,111.71L92.84,112.09L94.25,112.47L97.06,112.47L98.47,113.61L101.28,113.61L104.8,115.12L105.5,151.93L110.42,152.68L111.13,153.06L125.9,153.44L126.6,156.1L137.85,158.37L138.56,158.37L139.96,161.03L140.67,213.01L147.7,213.01L154.73,213.77L161.06,214.15L161.77,215.28L175.13,216.04L175.83,238.81L196.93,240.7L203.26,240.7L207.48,241.08L208.19,241.46L209.59,242.6L210.3,244.5L211.7,299.89L214.52,299.89L245.46,300.27L246.17,303.3L253.2,303.68L260.23,303.68L279.93,304.06L280.63,305.2L281.33,319.24L291.88,319.24L295.4,319.62L310.87,319.62L315.8,319.62L316.5,321.51L350.96,321.51L351.67,326.82L421.3,328.72L422,334.41L561.96,336.31L562.67,339.34L3727.67,342" style="vector-effect: none; fill: none; stroke: rgb(239, 85, 59); stroke-opacity: 1; stroke-width: 2px; opacity: 1;"/></g><g class="points"/><g class="text"/></g><g class="trace scatter traced73dd9" style="stroke-miterlimit: 2; opacity: 1;"><g class="fills"/><g class="errorbars"/><g class="lines"><path class="js-line" d="M-133.63,342L-64.71,340.1L-64,340.1L-31.65,338.96L-28.13,338.59L-14.07,337.45L-8.44,337.45L-7.03,336.69L-1.41,336.69L-0.7,336.31L0,334.03L4.22,334.03L7.03,333.27L19.69,332.52L20.4,332.14L21.8,331.38L24.62,331.38L33.06,331L33.76,330.62L34.46,330.24L35.17,326.07L41.5,325.69L42.2,324.93L48.53,324.55L49.23,323.79L68.93,323.41L69.63,323.03L71.04,310.89L73.85,310.51L80.88,309.37L83.7,309.37L84.4,308.61L90.73,308.61L91.43,307.85L92.84,307.85L101.28,307.1L101.98,306.72L103.39,306.72L104.09,305.96L104.8,303.68L105.5,278.26L109.02,277.88L109.72,277.12L111.83,276.37L112.53,275.23L118.86,274.47L119.57,272.95L125.9,272.57L126.6,269.92L139.26,266.88L139.96,263.47L141.37,231.6L142.07,231.6L147.7,231.6L154.73,229.32L161.06,229.32L161.77,227.42L173.72,227.04L174.43,226.29L175.13,223.25L175.83,192.14L182.16,192.14L182.87,191.38L193.42,191L196.93,188.35L203.97,186.83L206.08,186.45L208.89,186.07L209.59,185.69L210.3,182.66L211,142.44L232.1,142.06L239.13,141.68L245.46,140.54L246.17,120.81L260.23,120.06L266.56,120.06L267.27,119.68L273.6,119.68L280.63,119.3L281.33,82.88L315.8,82.12L316.5,73.77L323.53,73.39L330.57,73.01L350.96,71.87L351.67,56.32L392.46,53.28L400.9,52.9L421.3,51.77L422,42.28L491.63,40L492.33,34.69L561.96,32.04L562.67,25.21L3727.67,18" style="vector-effect: none; fill: none; stroke: rgb(0, 204, 150); stroke-opacity: 1; stroke-width: 2px; opacity: 1;"/></g><g class="points"/><g class="text"/></g><g class="trace scatter trace2aa6be" style="stroke-miterlimit: 2; opacity: 1;"><g class="fills"/><g class="errorbars"/><g class="lines"><path class="js-line" d="M-133.63,342L-62.6,340.48L-56.27,340.1L-28.13,338.96L-21.1,338.96L-0.7,338.59L0,337.07L13.36,337.07L14.07,336.31L20.4,335.93L21.1,335.55L33.76,335.17L34.46,334.79L35.17,332.89L38.68,332.52L69.63,332.14L70.33,326.07L71.04,325.69L73.85,325.69L80.88,324.17L83.7,324.17L84.4,323.41L90.73,323.41L92.84,323.03L93.54,323.03L104.8,322.65L105.5,314.68L106.2,313.93L109.02,313.55L111.13,313.17L111.83,312.79L112.53,311.65L116.05,311.65L118.86,311.65L119.57,310.51L125.9,310.51L126.6,309.75L138.56,309.37L139.26,308.99L139.96,308.61L140.67,283.19L144.18,282.44L147.7,282.06L155.44,279.78L161.06,279.78L161.77,279.4L168.8,279.4L175.13,279.02L175.83,262.33L186.38,261.19L189.9,260.05L193.42,258.91L196.93,258.91L203.26,258.91L203.97,257.78L208.19,257.4L208.89,257.02L209.59,257.02L210.3,255.88L211.7,216.8L214.52,216.8L225.07,215.28L231.4,214.9L232.1,214.52L239.13,214.52L245.46,214.52L246.17,197.07L280.63,193.28L281.33,151.55L295.4,151.55L310.87,150.79L315.8,150.03L316.5,142.06L317.2,141.68L321.42,141.68L323.53,140.92L330.57,140.92L350.96,140.54L351.67,107.16L392.46,101.85L400.9,101.85L414.97,101.85L421.3,100.33L422,84.77L457.17,82.88L491.63,81.74L492.33,68.08L561.96,66.18L562.67,43.04L633,38.87L703.33,32.8L3727.67,18" style="vector-effect: none; fill: none; stroke: rgb(171, 99, 250); stroke-opacity: 1; stroke-width: 2px; opacity: 1;"/></g><g class="points"/><g class="text"/></g></g></g></g><path class="xlines-above crisp" d="M0,0" style="fill: none;"/><path class="ylines-above crisp" d="M0,0" style="fill: none;"/><g class="overlines-above"/><g class="xaxislayer-above"><g class="xtick"><text text-anchor="middle" x="0" y="439" transform="translate(80,0)" style="font-family: 'Gill Sans Nova'; font-size: 18px; fill: rgb(0, 0, 0); fill-opacity: 1; white-space: pre; opacity: 1;">200</text></g><g class="xtick"><text text-anchor="middle" x="0" y="439" style="font-family: 'Gill Sans Nova'; font-size: 18px; fill: rgb(0, 0, 0); fill-opacity: 1; white-space: pre; opacity: 1;" transform="translate(150.32999999999998,0)">300</text></g><g class="xtick"><text text-anchor="middle" x="0" y="439" style="font-family: 'Gill Sans Nova'; font-size: 18px; fill: rgb(0, 0, 0); fill-opacity: 1; white-space: pre; opacity: 1;" transform="translate(220.67,0)">400</text></g><g class="xtick"><text text-anchor="middle" x="0" y="439" style="font-family: 'Gill Sans Nova'; font-size: 18px; fill: rgb(0, 0, 0); fill-opacity: 1; white-space: pre; opacity: 1;" transform="translate(291,0)">500</text></g><g class="xtick"><text text-anchor="middle" x="0" y="439" style="font-family: 'Gill Sans Nova'; font-size: 18px; fill: rgb(0, 0, 0); fill-opacity: 1; white-space: pre; opacity: 1;" transform="translate(361.33,0)">600</text></g><g class="xtick"><text text-anchor="middle" x="0" y="439" style="font-family: 'Gill Sans Nova'; font-size: 18px; fill: rgb(0, 0, 0); fill-opacity: 1; white-space: pre; opacity: 1;" transform="translate(431.67,0)">700</text></g><g class="xtick"><text text-anchor="middle" x="0" y="439" style="font-family: 'Gill Sans Nova'; font-size: 18px; fill: rgb(0, 0, 0); fill-opacity: 1; white-space: pre; opacity: 1;" transform="translate(502,0)">800</text></g></g><g class="yaxislayer-above"><g class="ytick"><text text-anchor="end" x="79" y="6.3" transform="translate(0,402)" style="font-family: 'Gill Sans Nova'; font-size: 18px; fill: rgb(0, 0, 0); fill-opacity: 1; white-space: pre; opacity: 1;">0</text></g><g class="ytick"><text text-anchor="end" x="79" y="6.3" style="font-family: 'Gill Sans Nova'; font-size: 18px; fill: rgb(0, 0, 0); fill-opacity: 1; white-space: pre; opacity: 1;" transform="translate(0,337.2)">20</text></g><g class="ytick"><text text-anchor="end" x="79" y="6.3" style="font-family: 'Gill Sans Nova'; font-size: 18px; fill: rgb(0, 0, 0); fill-opacity: 1; white-space: pre; opacity: 1;" transform="translate(0,272.4)">40</text></g><g class="ytick"><text text-anchor="end" x="79" y="6.3" style="font-family: 'Gill Sans Nova'; font-size: 18px; fill: rgb(0, 0, 0); fill-opacity: 1; white-space: pre; opacity: 1;" transform="translate(0,207.6)">60</text></g><g class="ytick"><text text-anchor="end" x="79" y="6.3" style="font-family: 'Gill Sans Nova'; font-size: 18px; fill: rgb(0, 0, 0); fill-opacity: 1; white-space: pre; opacity: 1;" transform="translate(0,142.8)">80</text></g><g class="ytick"><text text-anchor="end" x="79" y="6.3" style="font-family: 'Gill Sans Nova'; font-size: 18px; fill: rgb(0, 0, 0); fill-opacity: 1; white-space: pre; opacity: 1;" transform="translate(0,78)">100</text></g></g><g class="overaxes-above"/></g></g><g class="polarlayer"/><g class="smithlayer"/><g class="ternarylayer"/><g class="geolayer"/><g class="funnelarealayer"/><g class="pielayer"/><g class="iciclelayer"/><g class="treemaplayer"/><g class="sunburstlayer"/><g class="glimages"/><defs id="topdefs-70fbe9"><g class="clips"/><clipPath id="legend70fbe9"><rect width="178" height="116" x="0" y="0"/></clipPath></defs><g class="layer-above"><g class="imagelayer"/><g class="shapelayer"/></g><g class="infolayer"><g class="legend" pointer-events="all" transform="translate(510.44,60)"><rect class="bg" shape-rendering="crispEdges" width="178" height="116" x="0" y="0" style="stroke: rgb(68, 68, 68); stroke-opacity: 1; fill: rgb(255, 255, 255); fill-opacity: 1; stroke-width: 0px;"/><g class="scrollbox" transform="" clip-path="url(#legend70fbe9)"><g class="groups" transform=""><g class="traces" transform="translate(0,18.200000000000003)" style="opacity: 1;"><text class="legendtext" text-anchor="start" x="40" y="7.0200000000000005" style="font-family: 'Gill Sans Nova'; font-size: 18px; fill: rgb(0, 0, 0); fill-opacity: 1; white-space: pre;">Слишком дешево</text><g class="layers" style="opacity: 1;"><g class="legendfill"/><g class="legendlines"><path class="js-line" d="M5,0h30" style="fill: none; stroke: rgb(99, 110, 250); stroke-opacity: 1; stroke-width: 2px;"/></g><g class="legendsymbols"><g class="legendpoints"/></g></g><rect class="legendtoggle" x="0" y="-13.200000000000001" width="172.625" height="26.400000000000002" style="fill: rgb(0, 0, 0); fill-opacity: 0;"/></g></g><g class="groups" transform=""><g class="traces" transform="translate(0,44.6)" style="opacity: 1;"><text class="legendtext" text-anchor="start" x="40" y="7.0200000000000005" style="font-family: 'Gill Sans Nova'; font-size: 18px; fill: rgb(0, 0, 0); fill-opacity: 1; white-space: pre;">Дешево</text><g class="layers" style="opacity: 1;"><g class="legendfill"/><g class="legendlines"><path class="js-line" d="M5,0h30" style="fill: none; stroke: rgb(239, 85, 59); stroke-opacity: 1; stroke-width: 2px;"/></g><g class="legendsymbols"><g class="legendpoints"/></g></g><rect class="legendtoggle" x="0" y="-13.200000000000001" width="172.625" height="26.400000000000002" style="fill: rgb(0, 0, 0); fill-opacity: 0;"/></g></g><g class="groups" transform=""><g class="traces" transform="translate(0,71)" style="opacity: 1;"><text class="legendtext" text-anchor="start" x="40" y="7.0200000000000005" style="font-family: 'Gill Sans Nova'; font-size: 18px; fill: rgb(0, 0, 0); fill-opacity: 1; white-space: pre;">Дорого</text><g class="layers" style="opacity: 1;"><g class="legendfill"/><g class="legendlines"><path class="js-line" d="M5,0h30" style="fill: none; stroke: rgb(0, 204, 150); stroke-opacity: 1; stroke-width: 2px;"/></g><g class="legendsymbols"><g class="legendpoints"/></g></g><rect class="legendtoggle" x="0" y="-13.200000000000001" width="172.625" height="26.400000000000002" style="fill: rgb(0, 0, 0); fill-opacity: 0;"/></g></g><g class="groups" transform=""><g class="traces" transform="translate(0,97.4)" style="opacity: 1;"><text class="legendtext" text-anchor="start" x="40" y="7.0200000000000005" style="font-family: 'Gill Sans Nova'; font-size: 18px; fill: rgb(0, 0, 0); fill-opacity: 1; white-space: pre;">Слишком дорого</text><g class="layers" style="opacity: 1;"><g class="legendfill"/><g class="legendlines"><path class="js-line" d="M5,0h30" style="fill: none; stroke: rgb(171, 99, 250); stroke-opacity: 1; stroke-width: 2px;"/></g><g class="legendsymbols"><g class="legendpoints"/></g></g><rect class="legendtoggle" x="0" y="-13.200000000000001" width="172.625" height="26.400000000000002" style="fill: rgb(0, 0, 0); fill-opacity: 0;"/></g></g></g><rect class="scrollbar" rx="20" ry="3" width="0" height="0" x="0" y="0" style="fill: rgb(128, 139, 164); fill-opacity: 1;"/></g><g class="g-gtitle"/><g class="g-xtitle"><text class="xtitle" x="291" y="473.9" text-anchor="middle" style="opacity: 1; font-family: 'Gill Sans Nova'; font-size: 22px; fill: rgb(0, 0, 0); fill-opacity: 1; white-space: pre;">Цена</text></g><g class="g-ytitle"><text class="ytitle" transform="rotate(-90,29.799999999999997,240)" x="29.799999999999997" y="240" text-anchor="middle" style="opacity: 1; font-family: 'Gill Sans Nova'; font-size: 22px; fill: rgb(0, 0, 0); fill-opacity: 1; white-space: pre;">Доля, %</text></g></g></svg>