<svg class="main-svg" xmlns="http://www.w3.org/2000/svg" xmlns:xlink="http://www.w3.org/1999/xlink" width="700" height="500" style="" viewBox="0 0 700 500"><rect x="0" y="0" width="700" height="500" style="fill: rgb(255, 255, 255); fill-opacity: 1;"/><defs id="defs-f194af"><g class="clips"><clipPath id="clipf194afxyplot" class="plotclip"><rect width="422" height="360"/></clipPath><clipPath class="axesclip" id="clipf194afx"><rect x="80" y="0" width="422" height="500"/></clipPath><clipPath class="axesclip" id="clipf194afy"><rect x="0" y="60" width="700" height="360"/></clipPath><clipPath class="axesclip" id="clipf194afxy"><rect x="80" y="60" width="422" height="360"/></clipPath></g><g class="gradients"/><g class="patterns"/></defs><g class="bglayer"/><g class="layer-below"><g class="imagelayer"/><g class="shapelayer"/></g><g class="cartesianlayer"><g class="subplot xy"><g class="layer-subplot"><g class="shapelayer"/><g class="imagelayer"/></g><g class="minor-gridlayer"><g class="x"/><g class="y"/></g><g class="gridlayer"><g class="x"/><g class="y"/></g><g class="zerolinelayer"><path class="yzl zl crisp" transform="translate(0,398.67)" d="M80,0h422" style="stroke: rgb(235, 240, 248); stroke-opacity: 1; stroke-width: 2px;"/></g><g class="layer-between"><g class="shapelayer"/><g class="imagelayer"/></g><path class="xlines-below"/><path class="ylines-below"/><g class="overlines-below"/><g class="xaxislayer-below"/><g class="yaxislayer-below"/><g class="overaxes-below"/><g class="overplot"><g class="xy" transform="translate(80,60)" clip-path="url(#clipf194afxyplot)"><g class="scatterlayer mlayer"><g class="trace scatter trace202840" style="stroke-miterlimit: 2; opacity: 1;"><g class="fills"/><g class="errorbars"/><g class="lines"><path class="js-line" d="M-133.63,18L-120.97,42.59L-109.02,52.26L-98.47,54.8L-94.95,54.98L-62.6,56.41L-56.27,58.41L-42.2,66.11L-37.28,69.9L-28.13,78.42L-21.1,86.19L-7.03,104.51L-1.41,112.71L14.07,137.11L14.77,138.27L71.04,231.2L73.85,235.4L91.43,259.72L92.84,261.51L106.2,277.34L109.02,280.39L119.57,290.93L125.9,296.58L139.26,306.88L139.96,307.36L147.7,312.3L154.73,316.21L168.8,322.51L173.72,324.27L186.38,327.89L189.9,328.68L207.48,331.45L208.19,331.52L225.07,332.7L231.4,332.88L260.23,332.7L266.56,332.55L310.87,331.96L315.8,332.01L351.67,333.27L386.83,335.69L478.27,341.2L485.3,341.31L562.67,339.3L632.3,335.86L3727.67,338.66" style="vector-effect: none; fill: none; stroke: rgb(99, 110, 250); stroke-opacity: 1; stroke-width: 2px; opacity: 1;"/></g><g class="points"/><g class="text"/></g><g class="trace scatter tracec58387" style="stroke-miterlimit: 2; opacity: 1;"><g class="fills"/><g class="errorbars"/><g class="lines"><path class="js-line" d="M-133.63,37.04L-120.97,33.83L-109.02,34.63L-62.6,40.4L-56.27,40.5L-21.1,41.31L-14.07,42.17L0,45.25L4.22,46.59L15.47,51.19L17.58,52.23L28.13,58.28L30.95,60.14L42.2,68.58L47.83,73.39L59.78,84.85L62.6,87.77L78.77,106.06L80.88,108.61L101.28,134.72L101.98,135.66L161.77,215.85L168.8,224.53L186.38,244.82L189.9,248.6L207.48,266.03L208.19,266.67L218.03,275.23L225.07,280.83L239.13,290.77L245.46,294.7L260.23,302.61L266.56,305.5L281.33,311.14L291.88,314.32L310.87,318.55L315.8,319.38L330.57,321.33L344.63,322.59L351.67,323.06L386.83,324.53L457.17,327.94L478.27,329.63L633,338.94L703.33,336.33L844,334.9L879.17,337.14L949.5,341.88L1090.17,338L1266,339.85L1406.67,337.93L3727.67,338.71" style="vector-effect: none; fill: none; stroke: rgb(239, 85, 59); stroke-opacity: 1; stroke-width: 2px; opacity: 1;"/></g><g class="points"/><g class="text"/></g><g class="trace scatter tracef53bdb" style="stroke-miterlimit: 2; opacity: 1;"><g class="fills"/><g class="errorbars"/><g class="lines"><path class="js-line" d="M-133.63,332.65L-120.97,340.31L-109.02,342L-91.43,339.93L-78.77,337.47L-49.23,333.56L-42.2,333.22L-14.07,333.2L-8.44,333.24L13.36,332.49L14.07,332.43L28.13,330.53L30.95,329.98L42.2,327.14L47.83,325.3L59.78,320.42L62.6,319.07L73.85,312.94L77.37,310.78L91.43,301L92.84,299.92L106.2,288.91L109.02,286.41L126.6,269.61L133.63,262.39L155.44,238.74L161.06,232.43L218.03,169.29L225.07,162.08L246.17,141.84L249.68,138.7L267.27,124.01L273.6,119.17L281.33,113.57L291.88,106.52L310.87,95.46L315.8,92.93L330.57,86.11L344.63,80.62L351.67,78.2L386.83,68.94L414.97,63.99L421.3,63.08L485.3,55.74L490.93,55.16L633,41.5L703.33,39.2L3727.67,35.41" style="vector-effect: none; fill: none; stroke: rgb(0, 204, 150); stroke-opacity: 1; stroke-width: 2px; opacity: 1;"/></g><g class="points"/><g class="text"/></g><g class="trace scatter trace4c4640" style="stroke-miterlimit: 2; opacity: 1;"><g class="fills"/><g class="errorbars"/><g class="lines"><path class="js-line" d="M-133.63,337.13L-105.5,339.53L-101.98,339.49L-62.6,337.09L-56.27,336.64L-14.07,334.58L-8.44,334.42L33.06,332.52L33.76,332.46L55.56,329.84L56.27,329.73L73.85,326.13L77.37,325.23L94.25,319.98L97.06,318.95L112.53,312.48L116.05,310.81L133.63,301.43L136.45,299.77L154.73,287.99L155.44,287.5L179.35,269.74L182.16,267.51L206.08,247.7L206.78,247.1L281.33,183.37L291.88,175.08L317.2,156.65L321.42,153.8L330.57,147.86L344.63,139.36L351.67,135.4L386.83,118.49L407.93,110.46L414.97,108.09L422,105.87L457.17,96.48L633,62.34L703.33,49.86L773.67,42.86L844,42.61L949.5,46.37L1090.17,38.64L1266,40.09L1406.67,37.08L3727.67,35.43" style="vector-effect: none; fill: none; stroke: rgb(171, 99, 250); stroke-opacity: 1; stroke-width: 2px; opacity: 1;"/></g><g class="points"/><g class="text"/></g><g class="trace scatter trace28d5fe" style="stroke-miterlimit: 2; opacity: 1;"><g class="fills"/><g class="errorbars"/><g class="lines"/><g class="points"><path class="point" transform="translate(111.83,283.34)" d="M3.5,0A3.5,3.5 0 1,1 0,-3.5A3.5,3.5 0 0,1 3.5,0Z" style="opacity: 1; stroke-width: 0px; fill: rgb(0, 0, 0); fill-opacity: 1;"/><path class="point" transform="translate(133.63,302.8)" d="M3.5,0A3.5,3.5 0 1,1 0,-3.5A3.5,3.5 0 0,1 3.5,0Z" style="opacity: 1; stroke-width: 0px; fill: rgb(0, 0, 0); fill-opacity: 1;"/><path class="point" transform="translate(168.8,224.53)" d="M3.5,0A3.5,3.5 0 1,1 0,-3.5A3.5,3.5 0 0,1 3.5,0Z" style="opacity: 1; stroke-width: 0px; fill: rgb(0, 0, 0); fill-opacity: 1;"/><path class="point" transform="translate(196.93,255.88)" d="M3.5,0A3.5,3.5 0 1,1 0,-3.5A3.5,3.5 0 0,1 3.5,0Z" style="opacity: 1; stroke-width: 0px; fill: rgb(0, 0, 0); fill-opacity: 1;"/></g><g class="text"><g class="textpoint" transform="translate(0,-9.875)"><text x="111.83" y="283.34" text-anchor="middle" style="font-family: 'Gill Sans Nova'; font-size: 18px; fill: rgb(0, 0, 0); fill-opacity: 1; white-space: pre;">PMC</text></g><g class="textpoint" transform="translate(0,-9.875)"><text x="133.63" y="302.8" text-anchor="middle" style="font-family: 'Gill Sans Nova'; font-size: 18px; fill: rgb(0, 0, 0); fill-opacity: 1; white-space: pre;">OPP</text></g><g class="textpoint" transform="translate(0,-9.875)"><text x="168.8" y="224.53" text-anchor="middle" style="font-family: 'Gill Sans Nova'; font-size: 18px; fill: rgb(0, 0, 0); fill-opacity: 1; white-space: pre;">IDPP</text></g><g class="textpoint" transform="translate(0,-9.875)"><text x="196.93" y="255.88" text-anchor="middle" style="font-family: 'Gill Sans Nova'; font-size: 18px; fill: rgb(0, 0, 0); fill-opacity: 1; white-space: pre;">PME</text></g></g></g></g></g></g><path class="xlines-above crisp" d="M0,0" style="fill: none;"/><path class="ylines-above crisp" d="M0,0" style="fill: none;"/><g class="overlines-above"/><g class="xaxislayer-above"><g class="xtick"><text text-anchor="middle" x="0" y="439" transform="translate(80,0)" style="font-family: 'Gill Sans Nova'; font-size: 18px; fill: rgb(0, 0, 0); fill-opacity: 1; white-space: pre; opacity: 1;">200</text></g><g class="xtick"><text text-anchor="middle" x="0" y="439" style="font-family: 'Gill Sans Nova'; font-size: 18px; fill: rgb(0, 0, 0); fill-opacity: 1; white-space: pre; opacity: 1;" transform="translate(150.32999999999998,0)">300</text></g><g class="xtick"><text text-anchor="middle" x="0" y="439" style="font-family: 'Gill Sans Nova'; font-size: 18px; fill: rgb(0, 0, 0); fill-opacity: 1; white-space: pre; opacity: 1;" transform="translate(220.67,0)">400</text></g><g class="xtick"><text text-anchor="middle" x="0" y="439" style="font-family: 'Gill Sans Nova'; font-size: 18px; fill: rgb(0, 0, 0); fill-opacity: 1; white-space: pre; opacity: 1;" transform="translate(291,0)">500</text></g><g class="xtick"><text text-anchor="middle" x="0" y="439" style="font-family: 'Gill Sans Nova'; font-size: 18px; fill: rgb(0, 0, 0); fill-opacity: 1; white-space: pre; opacity: 1;" transform="translate(361.33,0)">600</text></g><g class="xtick"><text text-anchor="middle" x="0" y="439" style="font-family: 'Gill Sans Nova'; font-size: 18px; fill: rgb(0, 0, 0); fill-opacity: 1; white-space: pre; opacity: 1;" transform="translate(431.67,0)">700</text></g><g class="xtick"><text text-anchor="middle" x="0" y="439" style="font-family: 'Gill Sans Nova'; font-size: 18px; fill: rgb(0, 0, 0); fill-opacity: 1; white-space: pre; opacity: 1;" transform="translate(502,0)">800</text></g></g><g class="yaxislayer-above"><g class="ytick"><text text-anchor="end" x="79" y="6.3" transform="translate(0,398.67)" style="font-family: 'Gill Sans Nova'; font-size: 18px; fill: rgb(0, 0, 0); fill-opacity: 1; white-space: pre; opacity: 1;">0</text></g><g class="ytick"><text text-anchor="end" x="79" y="6.3" style="font-family: 'Gill Sans Nova'; font-size: 18px; fill: rgb(0, 0, 0); fill-opacity: 1; white-space: pre; opacity: 1;" transform="translate(0,338.02)">20</text></g><g class="ytick"><text text-anchor="end" x="79" y="6.3" style="font-family: 'Gill Sans Nova'; font-size: 18px; fill: rgb(0, 0, 0); fill-opacity: 1; white-space: pre; opacity: 1;" transform="translate(0,277.37)">40</text></g><g class="ytick"><text text-anchor="end" x="79" y="6.3" style="font-family: 'Gill Sans Nova'; font-size: 18px; fill: rgb(0, 0, 0); fill-opacity: 1; white-space: pre; opacity: 1;" transform="translate(0,216.71)">60</text></g><g class="ytick"><text text-anchor="end" x="79" y="6.3" style="font-family: 'Gill Sans Nova'; font-size: 18px; fill: rgb(0, 0, 0); fill-opacity: 1; white-space: pre; opacity: 1;" transform="translate(0,156.06)">80</text></g><g class="ytick"><text text-anchor="end" x="79" y="6.3" style="font-family: 'Gill Sans Nova'; font-size: 18px; fill: rgb(0, 0, 0); fill-opacity: 1; white-space: pre; opacity: 1;" transform="translate(0,95.41)">100</text></g></g><g class="overaxes-above"/></g></g><g class="polarlayer"/><g class="smithlayer"/><g class="ternarylayer"/><g class="geolayer"/><g class="funnelarealayer"/><g class="pielayer"/><g class="iciclelayer"/><g class="treemaplayer"/><g class="sunburstlayer"/><g class="glimages"/><defs id="topdefs-f194af"><g class="clips"/><clipPath id="legendf194af"><rect width="178" height="142" x="0" y="0"/></clipPath></defs><g class="layer-above"><g class="imagelayer"/><g class="shapelayer"/></g><g class="infolayer"><g class="legend" pointer-events="all" transform="translate(510.44,60)"><rect class="bg" shape-rendering="crispEdges" style="stroke: rgb(68, 68, 68); stroke-opacity: 1; fill: rgb(255, 255, 255); fill-opacity: 1; stroke-width: 0px;" width="178" height="142" x="0" y="0"/><g class="scrollbox" transform="" clip-path="url(#legendf194af)"><g class="groups" transform=""><g class="traces" transform="translate(0,18.200000000000003)" style="opacity: 1;"><text class="legendtext" text-anchor="start" x="40" y="7.0200000000000005" style="font-family: 'Gill Sans Nova'; font-size: 18px; fill: rgb(0, 0, 0); fill-opacity: 1; white-space: pre;">Слишком дешево</text><g class="layers" style="opacity: 1;"><g class="legendfill"/><g class="legendlines"><path class="js-line" d="M5,0h30" style="fill: none; stroke: rgb(99, 110, 250); stroke-opacity: 1; stroke-width: 2px;"/></g><g class="legendsymbols"><g class="legendpoints"/></g></g><rect class="legendtoggle" x="0" y="-13.200000000000001" width="172.625" height="26.400000000000002" style="fill: rgb(0, 0, 0); fill-opacity: 0;"/></g></g><g class="groups" transform=""><g class="traces" transform="translate(0,44.6)" style="opacity: 1;"><text class="legendtext" text-anchor="start" x="40" y="7.0200000000000005" style="font-family: 'Gill Sans Nova'; font-size: 18px; fill: rgb(0, 0, 0); fill-opacity: 1; white-space: pre;">Дешево</text><g class="layers" style="opacity: 1;"><g class="legendfill"/><g class="legendlines"><path class="js-line" d="M5,0h30" style="fill: none; stroke: rgb(239, 85, 59); stroke-opacity: 1; stroke-width: 2px;"/></g><g class="legendsymbols"><g class="legendpoints"/></g></g><rect class="legendtoggle" x="0" y="-13.200000000000001" width="172.625" height="26.400000000000002" style="fill: rgb(0, 0, 0); fill-opacity: 0;"/></g></g><g class="groups" transform=""><g class="traces" transform="translate(0,71)" style="opacity: 1;"><text class="legendtext" text-anchor="start" x="40" y="7.0200000000000005" style="font-family: 'Gill Sans Nova'; font-size: 18px; fill: rgb(0, 0, 0); fill-opacity: 1; white-space: pre;">Дорого</text><g class="layers" style="opacity: 1;"><g class="legendfill"/><g class="legendlines"><path class="js-line" d="M5,0h30" style="fill: none; stroke: rgb(0, 204, 150); stroke-opacity: 1; stroke-width: 2px;"/></g><g class="legendsymbols"><g class="legendpoints"/></g></g><rect class="legendtoggle" x="0" y="-13.200000000000001" width="172.625" height="26.400000000000002" style="fill: rgb(0, 0, 0); fill-opacity: 0;"/></g></g><g class="groups" transform=""><g class="traces" transform="translate(0,97.4)" style="opacity: 1;"><text class="legendtext" text-anchor="start" x="40" y="7.0200000000000005" style="font-family: 'Gill Sans Nova'; font-size: 18px; fill: rgb(0, 0, 0); fill-opacity: 1; white-space: pre;">Слишком дорого</text><g class="layers" style="opacity: 1;"><g class="legendfill"/><g class="legendlines"><path class="js-line" d="M5,0h30" style="fill: none; stroke: rgb(171, 99, 250); stroke-opacity: 1; stroke-width: 2px;"/></g><g class="legendsymbols"><g class="legendpoints"/></g></g><rect class="legendtoggle" x="0" y="-13.200000000000001" width="172.625" height="26.400000000000002" style="fill: rgb(0, 0, 0); fill-opacity: 0;"/></g></g><g class="groups" transform=""><g class="traces" transform="translate(0,123.80000000000001)" style="opacity: 1;"><text class="legendtext" text-anchor="start" x="40" y="7.0200000000000005" style="font-family: 'Gill Sans Nova'; font-size: 18px; fill: rgb(0, 0, 0); fill-opacity: 1; white-space: pre;">Price points</text><g class="layers" style="opacity: 1;"><g class="legendfill"/><g class="legendlines"/><g class="legendsymbols"><g class="legendpoints"><path class="scatterpts" transform="translate(20,0)" d="M3.5,0A3.5,3.5 0 1,1 0,-3.5A3.5,3.5 0 0,1 3.5,0Z" style="opacity: 1; stroke-width: 0px; fill: rgb(0, 0, 0); fill-opacity: 1;"/></g></g></g><rect class="legendtoggle" x="0" y="-13.200000000000001" width="172.625" height="26.400000000000002" style="fill: rgb(0, 0, 0); fill-opacity: 0;"/></g></g></g><rect class="scrollbar" rx="20" ry="3" width="0" height="0" style="fill: rgb(128, 139, 164); fill-opacity: 1;" x="0" y="0"/></g><g class="g-gtitle"/><g class="g-xtitle"><text class="xtitle" x="291" y="473.9" text-anchor="middle" style="opacity: 1; font-family: 'Gill Sans Nova'; font-size: 22px; fill: rgb(0, 0, 0); fill-opacity: 1; white-space: pre;">Цена</text></g><g class="g-ytitle"><text class="ytitle" transform="rotate(-90,29.799999999999997,240)" x="29.799999999999997" y="240" text-anchor="middle" style="opacity: 1; font-family: 'Gill Sans Nova'; font-size: 22px; fill: rgb(0, 0, 0); fill-opacity: 1; white-space: pre;">Доля, %</text></g></g></svg>