<svg class="main-svg" xmlns="http://www.w3.org/2000/svg" xmlns:xlink="http://www.w3.org/1999/xlink" width="700" height="500" style="" viewBox="0 0 700 500"><rect x="0" y="0" width="700" height="500" style="fill: rgb(255, 255, 255); fill-opacity: 1;"/><defs id="defs-00e48e"><g class="clips"><clipPath id="clip00e48exyplot" class="plotclip"><rect width="474" height="360"/></clipPath><clipPath class="axesclip" id="clip00e48ex"><rect x="80" y="0" width="474" height="500"/></clipPath><clipPath class="axesclip" id="clip00e48ey"><rect x="0" y="60" width="700" height="360"/></clipPath><clipPath class="axesclip" id="clip00e48exy"><rect x="80" y="60" width="474" height="360"/></clipPath></g><g class="gradients"/><g class="patterns"/></defs><g class="bglayer"/><g class="layer-below"><g class="imagelayer"/><g class="shapelayer"/></g><g class="cartesianlayer"><g class="subplot xy"><g class="layer-subplot"><g class="shapelayer"/><g class="imagelayer"/></g><g class="minor-gridlayer"><g class="x"/><g class="y"/></g><g class="gridlayer"><g class="x"/><g class="y"/></g><g class="zerolinelayer"><path class="xzl zl crisp" transform="translate(80,0)" d="M0,60v360" style="stroke: rgb(235, 240, 248); stroke-opacity: 1; stroke-width: 2px;"/><path class="yzl zl crisp" transform="translate(0,402)" d="M80,0h474" style="stroke: rgb(235, 240, 248); stroke-opacity: 1; stroke-width: 2px;"/></g><path class="xlines-below"/><path class="ylines-below"/><g class="overlines-below"/><g class="xaxislayer-below"/><g class="yaxislayer-below"/><g class="overaxes-below"/><g class="plot" transform="translate(80,60)" clip-path="url(#clip00e48exyplot)"><g class="scatterlayer mlayer"><g class="trace scatter tracee6253b" style="stroke-miterlimit: 2; opacity: 1;"><g class="fills"/><g class="errorbars"/><g class="lines"><path class="js-line" d="M11.85,29.23L15.41,29.76L17.78,31.9L23.7,36.71L26.07,36.71L29.63,37.25L33.18,38.32L34.37,38.85L35.55,44.2L39.11,45.27L41.48,47.41L42.66,47.41L47.4,53.29L55.7,55.96L56.88,55.96L58.07,56.5L59.25,111.03L63.99,111.56L65.18,112.63L68.73,113.17L69.92,114.24L71.1,119.05L77.03,120.12L79.4,120.12L82.95,124.93L93.62,125.47L94.8,135.62L105.47,136.16L106.65,139.37L113.76,140.44L114.95,141.5L116.13,142.57L117.32,150.06L118.5,224.91L119.69,224.91L129.17,225.45L130.35,226.51L131.54,227.05L136.28,227.58L141.02,228.12L142.2,236.14L151.68,236.67L152.87,237.21L154.05,240.95L164.72,241.49L165.9,245.76L171.83,245.76L175.38,246.3L176.57,247.37L177.75,285.86L183.68,285.86L212.12,286.4L213.3,290.67L223.97,291.21L225.15,294.42L232.26,294.95L234.63,296.02L235.82,297.62L237,322.75L242.93,323.29L248.85,323.29L271.37,323.29L272.55,324.36L291.51,325.43L292.7,326.5L293.88,326.5L295.07,327.56L296.25,333.98L302.18,333.98L354.32,334.51L355.5,339.33L385.13,339.86L391.05,340.4L472.82,340.93L474,341.47L2370,342" style="vector-effect: non-scaling-stroke; fill: none; stroke: rgb(99, 110, 250); stroke-opacity: 1; stroke-width: 2px; opacity: 1;"/></g><g class="points"/><g class="text"/></g><g class="trace scatter trace879320" style="stroke-miterlimit: 2; opacity: 1;"><g class="fills"/><g class="errorbars"/><g class="lines"><path class="js-line" d="M11.85,18L14.22,18.53L15.41,18.53L17.78,18.53L23.7,19.6L33.18,20.14L34.37,20.67L35.55,22.28L37.92,22.28L47.4,22.81L53.33,23.35L56.88,23.88L58.07,24.42L59.25,34.04L63.99,34.04L69.92,34.04L71.1,35.11L79.4,35.11L82.95,38.32L88.88,38.85L90.06,39.39L92.43,39.92L93.62,40.99L94.8,45.27L97.17,45.27L105.47,45.8L106.65,48.48L114.95,49.01L116.13,49.54L117.32,52.22L118.5,89.64L129.17,89.64L130.35,90.71L139.83,91.25L141.02,91.78L142.2,100.34L145.76,100.34L152.87,100.34L154.05,103.54L164.72,104.08L165.9,105.15L175.38,105.15L176.57,106.75L177.75,152.73L183.68,152.73L188.42,152.73L189.6,154.87L200.27,154.87L201.45,158.08L212.12,158.08L213.3,165.03L222.78,165.56L223.97,166.63L225.15,167.17L231.08,167.17L234.63,167.17L235.82,174.12L237,229.19L241.74,229.19L242.93,230.26L248.85,231.33L259.52,232.4L260.7,236.14L271.37,236.67L272.55,237.74L284.4,239.88L290.33,239.88L295.07,242.02L296.25,278.38L306.92,278.38L308.1,279.98L318.77,279.98L319.95,281.58L330.62,281.58L331.8,286.93L342.47,287.47L343.65,288L350.76,288.53L354.32,290.67L355.5,315.8L356.69,315.8L379.2,316.34L385.13,316.87L394.61,317.41L402.9,317.41L413.57,317.41L414.75,328.1L437.27,328.63L438.45,329.17L450.3,329.7L462.15,329.7L472.82,329.7L474,335.58L591.32,336.65L592.5,340.4L2370,342" style="vector-effect: non-scaling-stroke; fill: none; stroke: rgb(239, 85, 59); stroke-opacity: 1; stroke-width: 2px; opacity: 1;"/></g><g class="points"/><g class="text"/></g><g class="trace scatter tracee98c4a" style="stroke-miterlimit: 2; opacity: 1;"><g class="fills"/><g class="errorbars"/><g class="lines"><path class="js-line" d="M11.85,342L23.7,341.47L26.07,340.93L34.37,340.93L35.55,339.86L39.11,339.86L41.48,338.79L58.07,338.26L59.25,337.19L69.92,336.65L71.1,334.51L79.4,334.51L82.95,331.31L93.62,330.77L94.8,327.03L101.91,325.96L105.47,325.43L106.65,322.22L112.58,322.22L116.13,322.22L117.32,321.15L118.5,317.41L119.69,316.34L120.87,316.34L124.43,315.27L129.17,314.73L130.35,311.52L141.02,310.99L142.2,301.37L152.87,300.3L154.05,294.95L164.72,294.42L165.9,290.67L176.57,289.07L177.75,272.5L188.42,271.43L189.6,266.61L200.27,266.61L201.45,261.27L212.12,258.59L213.3,248.97L223.97,248.97L225.15,245.23L232.26,244.69L234.63,244.16L235.82,243.09L237,212.61L242.93,212.61L248.85,211.01L259.52,210.48L260.7,204.59L266.63,202.99L271.37,202.99L272.55,197.64L284.4,196.57L292.7,196.57L293.88,195.5L295.07,191.76L296.25,161.29L306.92,159.15L308.1,157.54L318.77,157.01L319.95,152.73L330.62,152.73L331.8,146.32L342.47,145.25L343.65,142.57L350.76,142.57L354.32,136.69L355.5,101.41L356.69,100.87L373.28,98.73L379.2,94.46L385.13,94.46L391.05,92.32L394.61,92.32L402.9,91.25L413.57,90.71L414.75,62.91L420.68,62.91L426.6,61.31L437.27,61.31L438.45,59.7L447.93,59.7L450.3,58.63L468.08,58.1L472.82,57.03L474,39.92L485.85,39.39L521.4,37.78L533.25,34.04L591.32,32.44L592.5,26.55L2370,18" style="vector-effect: non-scaling-stroke; fill: none; stroke: rgb(0, 204, 150); stroke-opacity: 1; stroke-width: 2px; opacity: 1;"/></g><g class="points"/><g class="text"/></g><g class="trace scatter traced79187" style="stroke-miterlimit: 2; opacity: 1;"><g class="fills"/><g class="errorbars"/><g class="lines"><path class="js-line" d="M11.85,342L26.07,341.47L27.26,340.93L56.88,340.4L58.07,339.86L59.25,339.33L63.99,339.33L77.03,338.79L79.4,338.26L82.95,336.65L87.69,336.65L90.06,336.12L92.43,336.12L105.47,336.12L106.65,334.51L117.32,334.51L118.5,328.1L119.69,328.1L120.87,327.03L129.17,327.03L130.35,324.89L141.02,324.89L142.2,318.48L164.72,317.94L165.9,316.34L176.57,316.34L177.75,302.97L188.42,301.9L189.6,299.23L200.27,298.69L201.45,294.95L212.12,294.95L213.3,291.74L234.63,291.21L235.82,290.14L237,262.87L241.74,262.87L248.85,260.2L254.78,259.66L259.52,259.66L260.7,257.52L271.37,257.52L272.55,253.78L295.07,252.18L296.25,223.84L302.18,222.77L306.92,222.77L308.1,221.7L318.77,221.7L319.95,220.1L330.62,220.1L331.8,215.82L341.28,215.82L343.65,214.75L349.58,214.22L350.76,214.22L354.32,213.15L355.5,162.36L356.69,162.36L369.72,160.75L373.28,160.75L394.61,157.54L402.9,157.54L413.57,157.54L414.75,135.62L415.94,135.09L420.68,134.55L426.6,132.42L437.27,131.88L438.45,130.81L447.93,130.81L450.3,127.6L462.15,125.47L468.08,125.47L472.82,123.33L474,88.04L485.85,88.04L521.4,85.37L533.25,73.07L568.8,71.47L591.32,70.4L592.5,41.52L651.75,39.39L675.45,38.32L711,30.3L2370,18" style="vector-effect: non-scaling-stroke; fill: none; stroke: rgb(171, 99, 250); stroke-opacity: 1; stroke-width: 2px; opacity: 1;"/></g><g class="points"/><g class="text"/></g></g></g><g class="overplot"/><path class="xlines-above crisp" d="M0,0" style="fill: none;"/><path class="ylines-above crisp" d="M0,0" style="fill: none;"/><g class="overlines-above"/><g class="xaxislayer-above"><g class="xtick"><text text-anchor="middle" x="0" y="439" transform="translate(80,0)" style="font-family: 'Gill Sans Nova'; font-size: 18px; fill: rgb(0, 0, 0); fill-opacity: 1; white-space: pre; opacity: 1;">0</text></g><g class="xtick"><text text-anchor="middle" x="0" y="439" style="font-family: 'Gill Sans Nova'; font-size: 18px; fill: rgb(0, 0, 0); fill-opacity: 1; white-space: pre; opacity: 1;" transform="translate(198.5,0)">100</text></g><g class="xtick"><text text-anchor="middle" x="0" y="439" style="font-family: 'Gill Sans Nova'; font-size: 18px; fill: rgb(0, 0, 0); fill-opacity: 1; white-space: pre; opacity: 1;" transform="translate(317,0)">200</text></g><g class="xtick"><text text-anchor="middle" x="0" y="439" style="font-family: 'Gill Sans Nova'; font-size: 18px; fill: rgb(0, 0, 0); fill-opacity: 1; white-space: pre; opacity: 1;" transform="translate(435.5,0)">300</text></g><g class="xtick"><text text-anchor="middle" x="0" y="439" style="font-family: 'Gill Sans Nova'; font-size: 18px; fill: rgb(0, 0, 0); fill-opacity: 1; white-space: pre; opacity: 1;" transform="translate(554,0)">400</text></g></g><g class="yaxislayer-above"><g class="ytick"><text text-anchor="end" x="79" y="6.3" transform="translate(0,402)" style="font-family: 'Gill Sans Nova'; font-size: 18px; fill: rgb(0, 0, 0); fill-opacity: 1; white-space: pre; opacity: 1;">0</text></g><g class="ytick"><text text-anchor="end" x="79" y="6.3" style="font-family: 'Gill Sans Nova'; font-size: 18px; fill: rgb(0, 0, 0); fill-opacity: 1; white-space: pre; opacity: 1;" transform="translate(0,337.2)">20</text></g><g class="ytick"><text text-anchor="end" x="79" y="6.3" style="font-family: 'Gill Sans Nova'; font-size: 18px; fill: rgb(0, 0, 0); fill-opacity: 1; white-space: pre; opacity: 1;" transform="translate(0,272.4)">40</text></g><g class="ytick"><text text-anchor="end" x="79" y="6.3" style="font-family: 'Gill Sans Nova'; font-size: 18px; fill: rgb(0, 0, 0); fill-opacity: 1; white-space: pre; opacity: 1;" transform="translate(0,207.6)">60</text></g><g class="ytick"><text text-anchor="end" x="79" y="6.3" style="font-family: 'Gill Sans Nova'; font-size: 18px; fill: rgb(0, 0, 0); fill-opacity: 1; white-space: pre; opacity: 1;" transform="translate(0,142.8)">80</text></g><g class="ytick"><text text-anchor="end" x="79" y="6.3" style="font-family: 'Gill Sans Nova'; font-size: 18px; fill: rgb(0, 0, 0); fill-opacity: 1; white-space: pre; opacity: 1;" transform="translate(0,78)">100</text></g></g><g class="overaxes-above"/></g></g><g class="polarlayer"/><g class="smithlayer"/><g class="ternarylayer"/><g class="geolayer"/><g class="funnelarealayer"/><g class="pielayer"/><g class="iciclelayer"/><g class="treemaplayer"/><g class="sunburstlayer"/><g class="glimages"/><defs id="topdefs-00e48e"><g class="clips"/><clipPath id="legend00e48e"><rect width="125" height="145" x="0" y="0"/></clipPath></defs><g class="layer-above"><g class="imagelayer"/><g class="shapelayer"/></g><g class="infolayer"><g class="legend" pointer-events="all" transform="translate(563.48,60)"><rect class="bg" shape-rendering="crispEdges" width="125" height="145" x="0" y="0" style="stroke: rgb(68, 68, 68); stroke-opacity: 1; fill: rgb(255, 255, 255); fill-opacity: 1; stroke-width: 0px;"/><g class="scrollbox" transform="" clip-path="url(#legend00e48e)"><text class="legendtitletext" text-anchor="start" x="2" y="28.6" style="font-family: 'Gill Sans Nova'; font-size: 22px; fill: rgb(0, 0, 0); fill-opacity: 1; white-space: pre;">Legend</text><g class="groups" transform=""><g class="traces" transform="translate(0,46.800000000000004)" style="opacity: 1;"><text class="legendtext" text-anchor="start" x="40" y="7.0200000000000005" style="font-family: 'Gill Sans Nova'; font-size: 18px; fill: rgb(0, 0, 0); fill-opacity: 1; white-space: pre;">CHEAP</text><g class="layers" style="opacity: 1;"><g class="legendfill"/><g class="legendlines"><path class="js-line" d="M5,0h30" style="fill: none; stroke: rgb(99, 110, 250); stroke-opacity: 1; stroke-width: 2px;"/></g><g class="legendsymbols"><g class="legendpoints"/></g></g><rect class="legendtoggle" x="0" y="-13.200000000000001" width="119.96875" height="26.400000000000002" style="fill: rgb(0, 0, 0); fill-opacity: 0;"/></g></g><g class="groups" transform=""><g class="traces" transform="translate(0,73.2)" style="opacity: 1;"><text class="legendtext" text-anchor="start" x="40" y="7.0200000000000005" style="font-family: 'Gill Sans Nova'; font-size: 18px; fill: rgb(0, 0, 0); fill-opacity: 1; white-space: pre;">NORM</text><g class="layers" style="opacity: 1;"><g class="legendfill"/><g class="legendlines"><path class="js-line" d="M5,0h30" style="fill: none; stroke: rgb(239, 85, 59); stroke-opacity: 1; stroke-width: 2px;"/></g><g class="legendsymbols"><g class="legendpoints"/></g></g><rect class="legendtoggle" x="0" y="-13.200000000000001" width="119.96875" height="26.400000000000002" style="fill: rgb(0, 0, 0); fill-opacity: 0;"/></g></g><g class="groups" transform=""><g class="traces" transform="translate(0,99.60000000000001)" style="opacity: 1;"><text class="legendtext" text-anchor="start" x="40" y="7.0200000000000005" style="font-family: 'Gill Sans Nova'; font-size: 18px; fill: rgb(0, 0, 0); fill-opacity: 1; white-space: pre;">EXP</text><g class="layers" style="opacity: 1;"><g class="legendfill"/><g class="legendlines"><path class="js-line" d="M5,0h30" style="fill: none; stroke: rgb(0, 204, 150); stroke-opacity: 1; stroke-width: 2px;"/></g><g class="legendsymbols"><g class="legendpoints"/></g></g><rect class="legendtoggle" x="0" y="-13.200000000000001" width="119.96875" height="26.400000000000002" style="fill: rgb(0, 0, 0); fill-opacity: 0;"/></g></g><g class="groups" transform=""><g class="traces" transform="translate(0,126.00000000000001)" style="opacity: 1;"><text class="legendtext" text-anchor="start" x="40" y="7.0200000000000005" style="font-family: 'Gill Sans Nova'; font-size: 18px; fill: rgb(0, 0, 0); fill-opacity: 1; white-space: pre;">TOO_EXP</text><g class="layers" style="opacity: 1;"><g class="legendfill"/><g class="legendlines"><path class="js-line" d="M5,0h30" style="fill: none; stroke: rgb(171, 99, 250); stroke-opacity: 1; stroke-width: 2px;"/></g><g class="legendsymbols"><g class="legendpoints"/></g></g><rect class="legendtoggle" x="0" y="-13.200000000000001" width="119.96875" height="26.400000000000002" style="fill: rgb(0, 0, 0); fill-opacity: 0;"/></g></g></g><rect class="scrollbar" rx="20" ry="3" width="0" height="0" x="0" y="0" style="fill: rgb(128, 139, 164); fill-opacity: 1;"/></g><g class="g-gtitle"><text class="gtitle" x="35" y="30" text-anchor="start" dy="0em" style="font-family: 'Gill Sans Nova'; font-size: 25px; fill: rgb(0, 0, 0); opacity: 1; font-weight: normal; white-space: pre;">PSM</text></g><g class="g-xtitle"><text class="xtitle" x="317" y="474.4" text-anchor="middle" style="font-family: 'Gill Sans Nova'; font-size: 22px; fill: rgb(0, 0, 0); opacity: 1; font-weight: normal; white-space: pre;">Price</text></g><g class="g-ytitle" transform="translate(3.400390625,0)"><text class="ytitle" transform="rotate(-90,21.6,240)" x="21.6" y="240" text-anchor="middle" style="font-family: 'Gill Sans Nova'; font-size: 22px; fill: rgb(0, 0, 0); opacity: 1; font-weight: normal; white-space: pre;">Share</text></g></g></svg>